<mxfile host="app.diagrams.net" agent="Mozilla/5.0 (Windows NT 10.0; Win64; x64; rv:130.0) Gecko/20100101 Firefox/130.0" version="24.7.10">
  <diagram name="Страница — 1" id="QnMtsQIktMDIkjPz3GPe">
    <mxGraphModel dx="1686" dy="1054" grid="1" gridSize="10" guides="1" tooltips="1" connect="1" arrows="1" fold="1" page="1" pageScale="1" pageWidth="827" pageHeight="1169" math="0" shadow="0">
      <root>
        <mxCell id="0" />
        <mxCell id="1" parent="0" />
        <mxCell id="OVHgBiblaDA8LxcHS04d-8" style="edgeStyle=orthogonalEdgeStyle;rounded=0;orthogonalLoop=1;jettySize=auto;html=1;endArrow=none;endFill=0;" edge="1" parent="1" source="OVHgBiblaDA8LxcHS04d-2" target="OVHgBiblaDA8LxcHS04d-3">
          <mxGeometry relative="1" as="geometry" />
        </mxCell>
        <mxCell id="OVHgBiblaDA8LxcHS04d-10" value="*" style="edgeLabel;html=1;align=center;verticalAlign=middle;resizable=0;points=[];" vertex="1" connectable="0" parent="OVHgBiblaDA8LxcHS04d-8">
          <mxGeometry x="0.7162" y="2" relative="1" as="geometry">
            <mxPoint as="offset" />
          </mxGeometry>
        </mxCell>
        <mxCell id="OVHgBiblaDA8LxcHS04d-11" value="1" style="edgeLabel;html=1;align=center;verticalAlign=middle;resizable=0;points=[];" vertex="1" connectable="0" parent="OVHgBiblaDA8LxcHS04d-8">
          <mxGeometry x="-0.7297" y="2" relative="1" as="geometry">
            <mxPoint as="offset" />
          </mxGeometry>
        </mxCell>
        <mxCell id="OVHgBiblaDA8LxcHS04d-24" style="edgeStyle=orthogonalEdgeStyle;shape=connector;rounded=0;orthogonalLoop=1;jettySize=auto;html=1;entryX=0;entryY=0.5;entryDx=0;entryDy=0;strokeColor=default;align=center;verticalAlign=middle;fontFamily=Helvetica;fontSize=11;fontColor=default;labelBackgroundColor=default;endArrow=none;endFill=0;" edge="1" parent="1" source="OVHgBiblaDA8LxcHS04d-2" target="OVHgBiblaDA8LxcHS04d-16">
          <mxGeometry relative="1" as="geometry">
            <Array as="points">
              <mxPoint x="-240" y="180" />
            </Array>
          </mxGeometry>
        </mxCell>
        <mxCell id="OVHgBiblaDA8LxcHS04d-34" value="*" style="edgeLabel;html=1;align=center;verticalAlign=middle;resizable=0;points=[];fontFamily=Helvetica;fontSize=11;fontColor=default;labelBackgroundColor=default;" vertex="1" connectable="0" parent="OVHgBiblaDA8LxcHS04d-24">
          <mxGeometry x="-0.68" y="2" relative="1" as="geometry">
            <mxPoint as="offset" />
          </mxGeometry>
        </mxCell>
        <mxCell id="OVHgBiblaDA8LxcHS04d-2" value="студент" style="whiteSpace=wrap;html=1;align=center;" vertex="1" parent="1">
          <mxGeometry x="-288" y="300" width="100" height="40" as="geometry" />
        </mxCell>
        <mxCell id="OVHgBiblaDA8LxcHS04d-3" value="Relationship" style="shape=rhombus;perimeter=rhombusPerimeter;whiteSpace=wrap;html=1;align=center;" vertex="1" parent="1">
          <mxGeometry x="-60" y="290" width="120" height="60" as="geometry" />
        </mxCell>
        <mxCell id="OVHgBiblaDA8LxcHS04d-54" style="edgeStyle=orthogonalEdgeStyle;shape=connector;rounded=0;orthogonalLoop=1;jettySize=auto;html=1;entryX=0;entryY=0.5;entryDx=0;entryDy=0;strokeColor=default;align=center;verticalAlign=middle;fontFamily=Helvetica;fontSize=11;fontColor=default;labelBackgroundColor=default;endArrow=none;endFill=0;" edge="1" parent="1" source="OVHgBiblaDA8LxcHS04d-4" target="OVHgBiblaDA8LxcHS04d-2">
          <mxGeometry relative="1" as="geometry" />
        </mxCell>
        <mxCell id="OVHgBiblaDA8LxcHS04d-4" value="&lt;div&gt;№ паспорта&lt;/div&gt;" style="ellipse;whiteSpace=wrap;html=1;align=center;fontStyle=4;" vertex="1" parent="1">
          <mxGeometry x="-465" y="250" width="104" height="40" as="geometry" />
        </mxCell>
        <mxCell id="OVHgBiblaDA8LxcHS04d-53" style="edgeStyle=orthogonalEdgeStyle;shape=connector;rounded=0;orthogonalLoop=1;jettySize=auto;html=1;entryX=0;entryY=0.75;entryDx=0;entryDy=0;strokeColor=default;align=center;verticalAlign=middle;fontFamily=Helvetica;fontSize=11;fontColor=default;labelBackgroundColor=default;endArrow=none;endFill=0;" edge="1" parent="1" source="OVHgBiblaDA8LxcHS04d-5" target="OVHgBiblaDA8LxcHS04d-2">
          <mxGeometry relative="1" as="geometry" />
        </mxCell>
        <mxCell id="OVHgBiblaDA8LxcHS04d-5" value="ФИО" style="ellipse;whiteSpace=wrap;html=1;align=center;" vertex="1" parent="1">
          <mxGeometry x="-460" y="330" width="110" height="50" as="geometry" />
        </mxCell>
        <mxCell id="OVHgBiblaDA8LxcHS04d-14" value="оценка" style="ellipse;whiteSpace=wrap;html=1;align=center;fontFamily=Helvetica;fontSize=11;fontColor=default;labelBackgroundColor=default;" vertex="1" parent="1">
          <mxGeometry x="-150" y="220" width="100" height="40" as="geometry" />
        </mxCell>
        <mxCell id="OVHgBiblaDA8LxcHS04d-17" style="edgeStyle=orthogonalEdgeStyle;shape=connector;rounded=0;orthogonalLoop=1;jettySize=auto;html=1;entryX=1;entryY=0;entryDx=0;entryDy=0;strokeColor=default;align=center;verticalAlign=middle;fontFamily=Helvetica;fontSize=11;fontColor=default;labelBackgroundColor=default;endArrow=none;endFill=0;" edge="1" parent="1" source="OVHgBiblaDA8LxcHS04d-15" target="OVHgBiblaDA8LxcHS04d-3">
          <mxGeometry relative="1" as="geometry" />
        </mxCell>
        <mxCell id="OVHgBiblaDA8LxcHS04d-15" value="дата" style="ellipse;whiteSpace=wrap;html=1;align=center;fontFamily=Helvetica;fontSize=11;fontColor=default;labelBackgroundColor=default;" vertex="1" parent="1">
          <mxGeometry x="40" y="220" width="100" height="40" as="geometry" />
        </mxCell>
        <mxCell id="OVHgBiblaDA8LxcHS04d-16" value="Relationship" style="shape=rhombus;perimeter=rhombusPerimeter;whiteSpace=wrap;html=1;align=center;fontFamily=Helvetica;fontSize=11;fontColor=default;labelBackgroundColor=default;" vertex="1" parent="1">
          <mxGeometry x="-60" y="150" width="120" height="60" as="geometry" />
        </mxCell>
        <mxCell id="OVHgBiblaDA8LxcHS04d-18" style="edgeStyle=orthogonalEdgeStyle;shape=connector;rounded=0;orthogonalLoop=1;jettySize=auto;html=1;entryX=0.158;entryY=0.283;entryDx=0;entryDy=0;entryPerimeter=0;strokeColor=default;align=center;verticalAlign=middle;fontFamily=Helvetica;fontSize=11;fontColor=default;labelBackgroundColor=default;endArrow=none;endFill=0;" edge="1" parent="1" source="OVHgBiblaDA8LxcHS04d-14" target="OVHgBiblaDA8LxcHS04d-3">
          <mxGeometry relative="1" as="geometry" />
        </mxCell>
        <mxCell id="OVHgBiblaDA8LxcHS04d-21" style="edgeStyle=orthogonalEdgeStyle;shape=connector;rounded=0;orthogonalLoop=1;jettySize=auto;html=1;entryX=1;entryY=0.5;entryDx=0;entryDy=0;strokeColor=default;align=center;verticalAlign=middle;fontFamily=Helvetica;fontSize=11;fontColor=default;labelBackgroundColor=default;endArrow=none;endFill=0;" edge="1" parent="1" source="OVHgBiblaDA8LxcHS04d-19" target="OVHgBiblaDA8LxcHS04d-3">
          <mxGeometry relative="1" as="geometry" />
        </mxCell>
        <mxCell id="OVHgBiblaDA8LxcHS04d-22" value="*" style="edgeLabel;html=1;align=center;verticalAlign=middle;resizable=0;points=[];fontFamily=Helvetica;fontSize=11;fontColor=default;labelBackgroundColor=default;" vertex="1" connectable="0" parent="OVHgBiblaDA8LxcHS04d-21">
          <mxGeometry x="-0.5121" y="3" relative="1" as="geometry">
            <mxPoint as="offset" />
          </mxGeometry>
        </mxCell>
        <mxCell id="OVHgBiblaDA8LxcHS04d-23" style="edgeStyle=orthogonalEdgeStyle;shape=connector;rounded=0;orthogonalLoop=1;jettySize=auto;html=1;entryX=1;entryY=0.5;entryDx=0;entryDy=0;strokeColor=default;align=center;verticalAlign=middle;fontFamily=Helvetica;fontSize=11;fontColor=default;labelBackgroundColor=default;endArrow=none;endFill=0;" edge="1" parent="1" source="OVHgBiblaDA8LxcHS04d-19" target="OVHgBiblaDA8LxcHS04d-16">
          <mxGeometry relative="1" as="geometry">
            <Array as="points">
              <mxPoint x="260" y="180" />
            </Array>
          </mxGeometry>
        </mxCell>
        <mxCell id="OVHgBiblaDA8LxcHS04d-35" value="1" style="edgeLabel;html=1;align=center;verticalAlign=middle;resizable=0;points=[];fontFamily=Helvetica;fontSize=11;fontColor=default;labelBackgroundColor=default;" vertex="1" connectable="0" parent="OVHgBiblaDA8LxcHS04d-23">
          <mxGeometry x="-0.7956" y="1" relative="1" as="geometry">
            <mxPoint as="offset" />
          </mxGeometry>
        </mxCell>
        <mxCell id="OVHgBiblaDA8LxcHS04d-45" style="edgeStyle=orthogonalEdgeStyle;shape=connector;rounded=0;orthogonalLoop=1;jettySize=auto;html=1;entryX=1;entryY=0.5;entryDx=0;entryDy=0;strokeColor=default;align=center;verticalAlign=middle;fontFamily=Helvetica;fontSize=11;fontColor=default;labelBackgroundColor=default;endArrow=none;endFill=0;" edge="1" parent="1" source="OVHgBiblaDA8LxcHS04d-19" target="OVHgBiblaDA8LxcHS04d-44">
          <mxGeometry relative="1" as="geometry">
            <Array as="points">
              <mxPoint x="260" y="350" />
              <mxPoint x="190" y="350" />
              <mxPoint x="190" y="375" />
            </Array>
          </mxGeometry>
        </mxCell>
        <mxCell id="OVHgBiblaDA8LxcHS04d-46" value="*" style="edgeLabel;html=1;align=center;verticalAlign=middle;resizable=0;points=[];fontFamily=Helvetica;fontSize=11;fontColor=default;labelBackgroundColor=default;" vertex="1" connectable="0" parent="OVHgBiblaDA8LxcHS04d-45">
          <mxGeometry x="-0.1782" y="2" relative="1" as="geometry">
            <mxPoint as="offset" />
          </mxGeometry>
        </mxCell>
        <mxCell id="OVHgBiblaDA8LxcHS04d-19" value="сотрудник" style="whiteSpace=wrap;html=1;align=center;fontFamily=Helvetica;fontSize=11;fontColor=default;labelBackgroundColor=default;" vertex="1" parent="1">
          <mxGeometry x="210" y="300" width="100" height="40" as="geometry" />
        </mxCell>
        <mxCell id="OVHgBiblaDA8LxcHS04d-37" style="edgeStyle=orthogonalEdgeStyle;shape=connector;rounded=0;orthogonalLoop=1;jettySize=auto;html=1;entryX=0.5;entryY=1;entryDx=0;entryDy=0;strokeColor=default;align=center;verticalAlign=middle;fontFamily=Helvetica;fontSize=11;fontColor=default;labelBackgroundColor=default;endArrow=none;endFill=0;" edge="1" parent="1" source="OVHgBiblaDA8LxcHS04d-25" target="OVHgBiblaDA8LxcHS04d-3">
          <mxGeometry relative="1" as="geometry" />
        </mxCell>
        <mxCell id="OVHgBiblaDA8LxcHS04d-38" value="*" style="edgeLabel;html=1;align=center;verticalAlign=middle;resizable=0;points=[];fontFamily=Helvetica;fontSize=11;fontColor=default;labelBackgroundColor=default;" vertex="1" connectable="0" parent="OVHgBiblaDA8LxcHS04d-37">
          <mxGeometry x="-0.4689" y="1" relative="1" as="geometry">
            <mxPoint as="offset" />
          </mxGeometry>
        </mxCell>
        <mxCell id="OVHgBiblaDA8LxcHS04d-25" value="предмет" style="whiteSpace=wrap;html=1;align=center;fontFamily=Helvetica;fontSize=11;fontColor=default;labelBackgroundColor=default;" vertex="1" parent="1">
          <mxGeometry x="-50" y="420" width="100" height="40" as="geometry" />
        </mxCell>
        <mxCell id="OVHgBiblaDA8LxcHS04d-31" style="edgeStyle=orthogonalEdgeStyle;shape=connector;rounded=0;orthogonalLoop=1;jettySize=auto;html=1;entryX=0.5;entryY=0;entryDx=0;entryDy=0;strokeColor=default;align=center;verticalAlign=middle;fontFamily=Helvetica;fontSize=11;fontColor=default;labelBackgroundColor=default;endArrow=none;endFill=0;" edge="1" parent="1" source="OVHgBiblaDA8LxcHS04d-26" target="OVHgBiblaDA8LxcHS04d-27">
          <mxGeometry relative="1" as="geometry" />
        </mxCell>
        <mxCell id="OVHgBiblaDA8LxcHS04d-36" value="1" style="edgeLabel;html=1;align=center;verticalAlign=middle;resizable=0;points=[];fontFamily=Helvetica;fontSize=11;fontColor=default;labelBackgroundColor=default;" vertex="1" connectable="0" parent="OVHgBiblaDA8LxcHS04d-31">
          <mxGeometry x="0.3769" y="-1" relative="1" as="geometry">
            <mxPoint as="offset" />
          </mxGeometry>
        </mxCell>
        <mxCell id="OVHgBiblaDA8LxcHS04d-32" style="edgeStyle=orthogonalEdgeStyle;shape=connector;rounded=0;orthogonalLoop=1;jettySize=auto;html=1;strokeColor=default;align=center;verticalAlign=middle;fontFamily=Helvetica;fontSize=11;fontColor=default;labelBackgroundColor=default;endArrow=none;endFill=0;" edge="1" parent="1" source="OVHgBiblaDA8LxcHS04d-26">
          <mxGeometry relative="1" as="geometry">
            <mxPoint x="-238" y="340" as="targetPoint" />
            <Array as="points">
              <mxPoint x="-238" y="360" />
              <mxPoint x="-238" y="360" />
            </Array>
          </mxGeometry>
        </mxCell>
        <mxCell id="OVHgBiblaDA8LxcHS04d-33" value="*" style="edgeLabel;html=1;align=center;verticalAlign=middle;resizable=0;points=[];fontFamily=Helvetica;fontSize=11;fontColor=default;labelBackgroundColor=default;" vertex="1" connectable="0" parent="OVHgBiblaDA8LxcHS04d-32">
          <mxGeometry x="0.19" relative="1" as="geometry">
            <mxPoint as="offset" />
          </mxGeometry>
        </mxCell>
        <mxCell id="OVHgBiblaDA8LxcHS04d-26" value="находится" style="shape=rhombus;perimeter=rhombusPerimeter;whiteSpace=wrap;html=1;align=center;fontFamily=Helvetica;fontSize=11;fontColor=default;labelBackgroundColor=default;" vertex="1" parent="1">
          <mxGeometry x="-298" y="420" width="120" height="60" as="geometry" />
        </mxCell>
        <mxCell id="OVHgBiblaDA8LxcHS04d-27" value="группа" style="whiteSpace=wrap;html=1;align=center;fontFamily=Helvetica;fontSize=11;fontColor=default;labelBackgroundColor=default;" vertex="1" parent="1">
          <mxGeometry x="-288" y="530" width="92" height="35" as="geometry" />
        </mxCell>
        <mxCell id="OVHgBiblaDA8LxcHS04d-30" style="edgeStyle=orthogonalEdgeStyle;shape=connector;rounded=0;orthogonalLoop=1;jettySize=auto;html=1;entryX=0;entryY=0.5;entryDx=0;entryDy=0;strokeColor=default;align=center;verticalAlign=middle;fontFamily=Helvetica;fontSize=11;fontColor=default;labelBackgroundColor=default;endArrow=none;endFill=0;" edge="1" parent="1" source="OVHgBiblaDA8LxcHS04d-29" target="OVHgBiblaDA8LxcHS04d-27">
          <mxGeometry relative="1" as="geometry" />
        </mxCell>
        <mxCell id="OVHgBiblaDA8LxcHS04d-29" value="номер" style="ellipse;whiteSpace=wrap;html=1;align=center;fontStyle=4;fontFamily=Helvetica;fontSize=11;fontColor=default;labelBackgroundColor=default;" vertex="1" parent="1">
          <mxGeometry x="-420" y="525" width="100" height="40" as="geometry" />
        </mxCell>
        <mxCell id="OVHgBiblaDA8LxcHS04d-41" style="edgeStyle=orthogonalEdgeStyle;shape=connector;rounded=0;orthogonalLoop=1;jettySize=auto;html=1;entryX=1;entryY=0.25;entryDx=0;entryDy=0;strokeColor=default;align=center;verticalAlign=middle;fontFamily=Helvetica;fontSize=11;fontColor=default;labelBackgroundColor=default;endArrow=none;endFill=0;" edge="1" parent="1" source="OVHgBiblaDA8LxcHS04d-39" target="OVHgBiblaDA8LxcHS04d-25">
          <mxGeometry relative="1" as="geometry" />
        </mxCell>
        <mxCell id="OVHgBiblaDA8LxcHS04d-39" value="описсание" style="ellipse;whiteSpace=wrap;html=1;align=center;fontFamily=Helvetica;fontSize=11;fontColor=default;labelBackgroundColor=default;" vertex="1" parent="1">
          <mxGeometry x="90" y="430" width="80" height="30" as="geometry" />
        </mxCell>
        <mxCell id="OVHgBiblaDA8LxcHS04d-57" style="edgeStyle=orthogonalEdgeStyle;shape=connector;rounded=0;orthogonalLoop=1;jettySize=auto;html=1;entryX=1;entryY=0.75;entryDx=0;entryDy=0;strokeColor=default;align=center;verticalAlign=middle;fontFamily=Helvetica;fontSize=11;fontColor=default;labelBackgroundColor=default;endArrow=none;endFill=0;" edge="1" parent="1" source="OVHgBiblaDA8LxcHS04d-42" target="OVHgBiblaDA8LxcHS04d-25">
          <mxGeometry relative="1" as="geometry" />
        </mxCell>
        <mxCell id="OVHgBiblaDA8LxcHS04d-42" value="название" style="ellipse;whiteSpace=wrap;html=1;align=center;fontStyle=4;fontFamily=Helvetica;fontSize=11;fontColor=default;labelBackgroundColor=default;" vertex="1" parent="1">
          <mxGeometry x="90" y="470" width="90" height="30" as="geometry" />
        </mxCell>
        <mxCell id="OVHgBiblaDA8LxcHS04d-47" style="edgeStyle=orthogonalEdgeStyle;shape=connector;rounded=0;orthogonalLoop=1;jettySize=auto;html=1;entryX=0.75;entryY=0;entryDx=0;entryDy=0;strokeColor=default;align=center;verticalAlign=middle;fontFamily=Helvetica;fontSize=11;fontColor=default;labelBackgroundColor=default;endArrow=none;endFill=0;" edge="1" parent="1" source="OVHgBiblaDA8LxcHS04d-44" target="OVHgBiblaDA8LxcHS04d-25">
          <mxGeometry relative="1" as="geometry" />
        </mxCell>
        <mxCell id="OVHgBiblaDA8LxcHS04d-48" value="*" style="edgeLabel;html=1;align=center;verticalAlign=middle;resizable=0;points=[];fontFamily=Helvetica;fontSize=11;fontColor=default;labelBackgroundColor=default;" vertex="1" connectable="0" parent="OVHgBiblaDA8LxcHS04d-47">
          <mxGeometry x="-0.3081" y="-1" relative="1" as="geometry">
            <mxPoint x="-1" as="offset" />
          </mxGeometry>
        </mxCell>
        <mxCell id="OVHgBiblaDA8LxcHS04d-44" value="преподает" style="shape=rhombus;perimeter=rhombusPerimeter;whiteSpace=wrap;html=1;align=center;fontFamily=Helvetica;fontSize=11;fontColor=default;labelBackgroundColor=default;" vertex="1" parent="1">
          <mxGeometry x="70" y="350" width="100" height="50" as="geometry" />
        </mxCell>
        <mxCell id="OVHgBiblaDA8LxcHS04d-49" value="&lt;div&gt;№ паспорта&lt;/div&gt;" style="ellipse;whiteSpace=wrap;html=1;align=center;fontStyle=4;" vertex="1" parent="1">
          <mxGeometry x="380" y="240" width="104" height="40" as="geometry" />
        </mxCell>
        <mxCell id="OVHgBiblaDA8LxcHS04d-52" style="edgeStyle=orthogonalEdgeStyle;shape=connector;rounded=0;orthogonalLoop=1;jettySize=auto;html=1;strokeColor=default;align=center;verticalAlign=middle;fontFamily=Helvetica;fontSize=11;fontColor=default;labelBackgroundColor=default;endArrow=none;endFill=0;" edge="1" parent="1" source="OVHgBiblaDA8LxcHS04d-50" target="OVHgBiblaDA8LxcHS04d-19">
          <mxGeometry relative="1" as="geometry" />
        </mxCell>
        <mxCell id="OVHgBiblaDA8LxcHS04d-50" value="ФИО" style="ellipse;whiteSpace=wrap;html=1;align=center;" vertex="1" parent="1">
          <mxGeometry x="380" y="340" width="110" height="50" as="geometry" />
        </mxCell>
        <mxCell id="OVHgBiblaDA8LxcHS04d-51" style="edgeStyle=orthogonalEdgeStyle;shape=connector;rounded=0;orthogonalLoop=1;jettySize=auto;html=1;entryX=0.866;entryY=-0.053;entryDx=0;entryDy=0;entryPerimeter=0;strokeColor=default;align=center;verticalAlign=middle;fontFamily=Helvetica;fontSize=11;fontColor=default;labelBackgroundColor=default;endArrow=none;endFill=0;" edge="1" parent="1" source="OVHgBiblaDA8LxcHS04d-49" target="OVHgBiblaDA8LxcHS04d-19">
          <mxGeometry relative="1" as="geometry" />
        </mxCell>
        <mxCell id="OVHgBiblaDA8LxcHS04d-56" style="edgeStyle=orthogonalEdgeStyle;shape=connector;rounded=0;orthogonalLoop=1;jettySize=auto;html=1;entryX=0.5;entryY=1;entryDx=0;entryDy=0;strokeColor=default;align=center;verticalAlign=middle;fontFamily=Helvetica;fontSize=11;fontColor=default;labelBackgroundColor=default;endArrow=none;endFill=0;" edge="1" parent="1" source="OVHgBiblaDA8LxcHS04d-55" target="OVHgBiblaDA8LxcHS04d-25">
          <mxGeometry relative="1" as="geometry" />
        </mxCell>
        <mxCell id="OVHgBiblaDA8LxcHS04d-58" value="*" style="edgeLabel;html=1;align=center;verticalAlign=middle;resizable=0;points=[];fontFamily=Helvetica;fontSize=11;fontColor=default;labelBackgroundColor=default;" vertex="1" connectable="0" parent="OVHgBiblaDA8LxcHS04d-56">
          <mxGeometry x="0.6308" relative="1" as="geometry">
            <mxPoint as="offset" />
          </mxGeometry>
        </mxCell>
        <mxCell id="OVHgBiblaDA8LxcHS04d-59" style="edgeStyle=orthogonalEdgeStyle;shape=connector;rounded=0;orthogonalLoop=1;jettySize=auto;html=1;entryX=1;entryY=0.5;entryDx=0;entryDy=0;strokeColor=default;align=center;verticalAlign=middle;fontFamily=Helvetica;fontSize=11;fontColor=default;labelBackgroundColor=default;endArrow=none;endFill=0;" edge="1" parent="1" source="OVHgBiblaDA8LxcHS04d-55" target="OVHgBiblaDA8LxcHS04d-27">
          <mxGeometry relative="1" as="geometry" />
        </mxCell>
        <mxCell id="OVHgBiblaDA8LxcHS04d-60" value="*" style="edgeLabel;html=1;align=center;verticalAlign=middle;resizable=0;points=[];fontFamily=Helvetica;fontSize=11;fontColor=default;labelBackgroundColor=default;" vertex="1" connectable="0" parent="OVHgBiblaDA8LxcHS04d-59">
          <mxGeometry x="0.7592" y="-1" relative="1" as="geometry">
            <mxPoint as="offset" />
          </mxGeometry>
        </mxCell>
        <mxCell id="OVHgBiblaDA8LxcHS04d-62" style="edgeStyle=orthogonalEdgeStyle;shape=connector;rounded=0;orthogonalLoop=1;jettySize=auto;html=1;entryX=0.5;entryY=0;entryDx=0;entryDy=0;strokeColor=default;align=center;verticalAlign=middle;fontFamily=Helvetica;fontSize=11;fontColor=default;labelBackgroundColor=default;endArrow=none;endFill=0;" edge="1" parent="1" source="OVHgBiblaDA8LxcHS04d-55" target="OVHgBiblaDA8LxcHS04d-61">
          <mxGeometry relative="1" as="geometry" />
        </mxCell>
        <mxCell id="OVHgBiblaDA8LxcHS04d-63" value="*" style="edgeLabel;html=1;align=center;verticalAlign=middle;resizable=0;points=[];fontFamily=Helvetica;fontSize=11;fontColor=default;labelBackgroundColor=default;" vertex="1" connectable="0" parent="OVHgBiblaDA8LxcHS04d-62">
          <mxGeometry x="0.3014" relative="1" as="geometry">
            <mxPoint as="offset" />
          </mxGeometry>
        </mxCell>
        <mxCell id="OVHgBiblaDA8LxcHS04d-55" value="проходит" style="shape=rhombus;perimeter=rhombusPerimeter;whiteSpace=wrap;html=1;align=center;fontFamily=Helvetica;fontSize=11;fontColor=default;labelBackgroundColor=default;" vertex="1" parent="1">
          <mxGeometry x="-60" y="525" width="120" height="60" as="geometry" />
        </mxCell>
        <mxCell id="OVHgBiblaDA8LxcHS04d-61" value="вид занятий" style="whiteSpace=wrap;html=1;align=center;fontFamily=Helvetica;fontSize=11;fontColor=default;labelBackgroundColor=default;" vertex="1" parent="1">
          <mxGeometry x="-50" y="650" width="100" height="40" as="geometry" />
        </mxCell>
        <mxCell id="OVHgBiblaDA8LxcHS04d-65" style="edgeStyle=orthogonalEdgeStyle;shape=connector;rounded=0;orthogonalLoop=1;jettySize=auto;html=1;entryX=0.5;entryY=1;entryDx=0;entryDy=0;strokeColor=default;align=center;verticalAlign=middle;fontFamily=Helvetica;fontSize=11;fontColor=default;labelBackgroundColor=default;endArrow=none;endFill=0;" edge="1" parent="1" target="OVHgBiblaDA8LxcHS04d-61">
          <mxGeometry relative="1" as="geometry">
            <mxPoint x="-2.2737367544323206e-13" y="760" as="sourcePoint" />
          </mxGeometry>
        </mxCell>
        <mxCell id="OVHgBiblaDA8LxcHS04d-66" value="вид" style="ellipse;whiteSpace=wrap;html=1;align=center;fontStyle=4;fontFamily=Helvetica;fontSize=11;fontColor=default;labelBackgroundColor=default;" vertex="1" parent="1">
          <mxGeometry x="-50" y="760" width="100" height="40" as="geometry" />
        </mxCell>
        <mxCell id="OVHgBiblaDA8LxcHS04d-67" value="№ недели" style="ellipse;whiteSpace=wrap;html=1;align=center;fontFamily=Helvetica;fontSize=11;fontColor=default;labelBackgroundColor=default;" vertex="1" parent="1">
          <mxGeometry x="140" y="528" width="100" height="40" as="geometry" />
        </mxCell>
        <mxCell id="OVHgBiblaDA8LxcHS04d-68" value="день" style="ellipse;whiteSpace=wrap;html=1;align=center;fontFamily=Helvetica;fontSize=11;fontColor=default;labelBackgroundColor=default;" vertex="1" parent="1">
          <mxGeometry x="140" y="580" width="100" height="40" as="geometry" />
        </mxCell>
        <mxCell id="OVHgBiblaDA8LxcHS04d-69" value="аудитория" style="ellipse;whiteSpace=wrap;html=1;align=center;fontFamily=Helvetica;fontSize=11;fontColor=default;labelBackgroundColor=default;" vertex="1" parent="1">
          <mxGeometry x="140" y="640" width="100" height="40" as="geometry" />
        </mxCell>
        <mxCell id="OVHgBiblaDA8LxcHS04d-70" style="edgeStyle=orthogonalEdgeStyle;shape=connector;rounded=0;orthogonalLoop=1;jettySize=auto;html=1;entryX=0.874;entryY=0.411;entryDx=0;entryDy=0;entryPerimeter=0;strokeColor=default;align=center;verticalAlign=middle;fontFamily=Helvetica;fontSize=11;fontColor=default;labelBackgroundColor=default;endArrow=none;endFill=0;" edge="1" parent="1" source="OVHgBiblaDA8LxcHS04d-67" target="OVHgBiblaDA8LxcHS04d-55">
          <mxGeometry relative="1" as="geometry" />
        </mxCell>
        <mxCell id="OVHgBiblaDA8LxcHS04d-71" style="edgeStyle=orthogonalEdgeStyle;shape=connector;rounded=0;orthogonalLoop=1;jettySize=auto;html=1;entryX=0.923;entryY=0.528;entryDx=0;entryDy=0;entryPerimeter=0;strokeColor=default;align=center;verticalAlign=middle;fontFamily=Helvetica;fontSize=11;fontColor=default;labelBackgroundColor=default;endArrow=none;endFill=0;" edge="1" parent="1" source="OVHgBiblaDA8LxcHS04d-68" target="OVHgBiblaDA8LxcHS04d-55">
          <mxGeometry relative="1" as="geometry" />
        </mxCell>
        <mxCell id="OVHgBiblaDA8LxcHS04d-72" style="edgeStyle=orthogonalEdgeStyle;shape=connector;rounded=0;orthogonalLoop=1;jettySize=auto;html=1;entryX=0.844;entryY=0.705;entryDx=0;entryDy=0;entryPerimeter=0;strokeColor=default;align=center;verticalAlign=middle;fontFamily=Helvetica;fontSize=11;fontColor=default;labelBackgroundColor=default;endArrow=none;endFill=0;" edge="1" parent="1" source="OVHgBiblaDA8LxcHS04d-69" target="OVHgBiblaDA8LxcHS04d-55">
          <mxGeometry relative="1" as="geometry">
            <Array as="points">
              <mxPoint x="190" y="630" />
              <mxPoint x="41" y="630" />
            </Array>
          </mxGeometry>
        </mxCell>
        <mxCell id="OVHgBiblaDA8LxcHS04d-74" style="edgeStyle=orthogonalEdgeStyle;shape=connector;rounded=0;orthogonalLoop=1;jettySize=auto;html=1;entryX=0.75;entryY=1;entryDx=0;entryDy=0;strokeColor=default;align=center;verticalAlign=middle;fontFamily=Helvetica;fontSize=11;fontColor=default;labelBackgroundColor=default;endArrow=none;endFill=0;" edge="1" parent="1" source="OVHgBiblaDA8LxcHS04d-73" target="OVHgBiblaDA8LxcHS04d-19">
          <mxGeometry relative="1" as="geometry" />
        </mxCell>
        <mxCell id="OVHgBiblaDA8LxcHS04d-75" value="*" style="edgeLabel;html=1;align=center;verticalAlign=middle;resizable=0;points=[];fontFamily=Helvetica;fontSize=11;fontColor=default;labelBackgroundColor=default;" vertex="1" connectable="0" parent="OVHgBiblaDA8LxcHS04d-74">
          <mxGeometry x="0.7946" y="-1" relative="1" as="geometry">
            <mxPoint as="offset" />
          </mxGeometry>
        </mxCell>
        <mxCell id="OVHgBiblaDA8LxcHS04d-73" value="занимает" style="shape=rhombus;perimeter=rhombusPerimeter;whiteSpace=wrap;html=1;align=center;fontFamily=Helvetica;fontSize=11;fontColor=default;labelBackgroundColor=default;" vertex="1" parent="1">
          <mxGeometry x="340" y="440" width="120" height="60" as="geometry" />
        </mxCell>
        <mxCell id="OVHgBiblaDA8LxcHS04d-77" style="edgeStyle=orthogonalEdgeStyle;shape=connector;rounded=0;orthogonalLoop=1;jettySize=auto;html=1;entryX=0.5;entryY=1;entryDx=0;entryDy=0;strokeColor=default;align=center;verticalAlign=middle;fontFamily=Helvetica;fontSize=11;fontColor=default;labelBackgroundColor=default;endArrow=none;endFill=0;" edge="1" parent="1" source="OVHgBiblaDA8LxcHS04d-76" target="OVHgBiblaDA8LxcHS04d-73">
          <mxGeometry relative="1" as="geometry" />
        </mxCell>
        <mxCell id="OVHgBiblaDA8LxcHS04d-78" value="1" style="edgeLabel;html=1;align=center;verticalAlign=middle;resizable=0;points=[];fontFamily=Helvetica;fontSize=11;fontColor=default;labelBackgroundColor=default;" vertex="1" connectable="0" parent="OVHgBiblaDA8LxcHS04d-77">
          <mxGeometry x="0.28" relative="1" as="geometry">
            <mxPoint as="offset" />
          </mxGeometry>
        </mxCell>
        <mxCell id="OVHgBiblaDA8LxcHS04d-76" value="должность" style="whiteSpace=wrap;html=1;align=center;fontFamily=Helvetica;fontSize=11;fontColor=default;labelBackgroundColor=default;" vertex="1" parent="1">
          <mxGeometry x="350" y="530" width="100" height="40" as="geometry" />
        </mxCell>
        <mxCell id="OVHgBiblaDA8LxcHS04d-80" style="edgeStyle=orthogonalEdgeStyle;shape=connector;rounded=0;orthogonalLoop=1;jettySize=auto;html=1;entryX=0.5;entryY=1;entryDx=0;entryDy=0;strokeColor=default;align=center;verticalAlign=middle;fontFamily=Helvetica;fontSize=11;fontColor=default;labelBackgroundColor=default;endArrow=none;endFill=0;" edge="1" parent="1" source="OVHgBiblaDA8LxcHS04d-79" target="OVHgBiblaDA8LxcHS04d-76">
          <mxGeometry relative="1" as="geometry" />
        </mxCell>
        <mxCell id="OVHgBiblaDA8LxcHS04d-79" value="название" style="ellipse;whiteSpace=wrap;html=1;align=center;fontStyle=4;fontFamily=Helvetica;fontSize=11;fontColor=default;labelBackgroundColor=default;" vertex="1" parent="1">
          <mxGeometry x="350" y="630" width="100" height="40" as="geometry" />
        </mxCell>
      </root>
    </mxGraphModel>
  </diagram>
</mxfile>
